<svg xmlns="http://www.w3.org/2000/svg" width="45.997" height="45.988" viewBox="0 0 45.997 45.988">
  <defs>
    <style>
      .cls-1 {
        fill: #fff;
        stroke: #fff;
      }
    </style>
  </defs>
  <g id="Group_446" data-name="Group 446" transform="translate(-374.503 -2092.501)">
    <path id="Path_303" data-name="Path 303" className="cls-1" d="M269.305,117.157c-1.946.038-3.9.013-5.843.013h-.479c0-.475,0-.884,0-1.292a1.283,1.283,0,0,0-1.313-1.342q-13.182-.006-26.36,0a1.29,1.29,0,0,0-1.327,1.332c-.006.421,0,.842,0,1.3h-.513c-2.034,0-4.07,0-6.106,0a1.3,1.3,0,0,0-1.378,1.369q-.006,1.756,0,3.514a12.273,12.273,0,0,0,1.1,5.149,13.741,13.741,0,0,0,11.695,8.384.892.892,0,0,1,.673.392,13.529,13.529,0,0,0,4,3.572c.346.2.836.336.979.636.154.317-.013.8-.065,1.2a19.381,19.381,0,0,1-4.68,10.4,1.852,1.852,0,0,0-.411,1.059c-.052,1.184-.019,2.37-.019,3.557v.486c-.5,0-.938-.01-1.375,0a1.3,1.3,0,0,0-1.263,1.307,1.423,1.423,0,0,0,.967,1.325h21.8a.574.574,0,0,1,.1-.079,1.32,1.32,0,0,0-.571-2.557h-1.2c0-1.38.027-2.711-.017-4.037a2.089,2.089,0,0,0-.377-1.03c-.761-1.123-1.651-2.165-2.338-3.33a18.089,18.089,0,0,1-2.476-8.09c-.015-.233.017-.367.254-.473a11.091,11.091,0,0,0,4.12-3.2,2.555,2.555,0,0,1,2.255-1.246.845.845,0,0,0,.215-.037,13.685,13.685,0,0,0,11.1-9.824,23.845,23.845,0,0,0,.54-2.561v-4.922A1.577,1.577,0,0,0,269.305,117.157Zm-38.1,11.754a11.957,11.957,0,0,1-2.542-9.084h5.456a35.506,35.506,0,0,0,3.268,12.868A11.212,11.212,0,0,1,231.2,128.911ZM255.04,154.1v2.761H241.911V154.1Zm2.463-23.246c-1.492,3.155-3.441,5.885-6.938,7.1a1.128,1.128,0,0,0-.758,1.18c.046,1.005.062,2.021.2,3.016a21.916,21.916,0,0,0,3.43,8.971c.052.081.1.165.16.279H243.408c0-.044-.012-.061-.006-.071.065-.113.133-.227.2-.336a21.6,21.6,0,0,0,3.557-11.7,1.3,1.3,0,0,0-.979-1.43,9.763,9.763,0,0,1-4.432-3.257,20.96,20.96,0,0,1-3.632-7.335,36.9,36.9,0,0,1-1.319-7.227c-.085-.942-.108-1.89-.161-2.853h23.745c-.16,1.678-.275,3.324-.479,4.96A28.372,28.372,0,0,1,257.5,130.859Zm7.748-1.375a11.092,11.092,0,0,1-5.672,3.2,26.381,26.381,0,0,0,2.24-6.306c.452-2.165.773-4.357,1.157-6.564H268.3C268.6,123.486,267.838,126.781,265.25,129.484Z" transform="translate(149.019 1978.467)"/>
    <path id="Path_311" data-name="Path 311" className="cls-1" d="M245.924,121.115c-.726-.107-1.455-.213-2.177-.356a.738.738,0,0,1-.451-.324c-.345-.632-.657-1.282-.975-1.928a1.464,1.464,0,0,0-2.693-.008c-.318.646-.629,1.3-.975,1.926a.748.748,0,0,1-.446.328c-.754.149-1.518.24-2.269.383a1.426,1.426,0,0,0-.806,2.429c.486.533,1.011,1.032,1.543,1.516a.748.748,0,0,1,.255.762c-.122.661-.225,1.324-.347,1.983a1.462,1.462,0,0,0,.556,1.537,1.4,1.4,0,0,0,1.583.107c.64-.331,1.267-.684,1.922-.985a.869.869,0,0,1,.651,0c.682.312,1.333.7,2.013,1.015a1.46,1.46,0,0,0,2.086-1.446c-.1-.61-.211-1.339-.352-2.059a.891.891,0,0,1,.29-.977c.486-.413.92-.89,1.379-1.339a1.436,1.436,0,0,0,.459-1.52A1.408,1.408,0,0,0,245.924,121.115Zm-3.863,4.492a1.758,1.758,0,0,0-2.17-.011,1.778,1.778,0,0,0-.613-2.042,1.779,1.779,0,0,0,1.707-1.284,1.721,1.721,0,0,0,1.728,1.284A1.722,1.722,0,0,0,242.061,125.607Z" transform="translate(156.528 1981.871)"/>
  </g>
</svg>
