<svg xmlns="http://www.w3.org/2000/svg" width="44.886" height="30.075" viewBox="0 0 44.886 30.075">
  <defs>
    <style>
      .cls-1 {
        fill: #a98445;
        stroke: #a98445;
      }
    </style>
  </defs>
  <g id="Group_449" data-name="Group 449" transform="translate(-499.373 -2291.499)">
    <path id="Path_233" data-name="Path 233" class="cls-1" d="M527.034,118.8a27.231,27.231,0,0,0-4.313-5.787,23.94,23.94,0,0,0-12.333-6.9c-1.577-.335-3.2-.422-4.412-.574-9.515.363-16.685,4.622-21.747,13.128a2.74,2.74,0,0,0,.523,3.638,2.133,2.133,0,0,0,3.269-.807,23.9,23.9,0,0,1,4.791-5.9,19.186,19.186,0,0,1,26.617,1.026,42.035,42.035,0,0,1,3.266,4.125c.208.271.358.6.548.885a2.124,2.124,0,0,0,3.167.687A2.719,2.719,0,0,0,527.034,118.8Z" transform="translate(16.225 2186.47)"/>
    <path id="Path_234" data-name="Path 234" class="cls-1" d="M505.557,114.872c-.674-.126-1.357-.169-1.925-.238-5.086.206-8.994,2.727-11.748,7.753a2.9,2.9,0,0,0,.464,3.5,1.842,1.842,0,0,0,2.964-.579,13.393,13.393,0,0,1,3.224-3.847,8.366,8.366,0,0,1,11.688,1.685c.529.671.982,1.429,1.454,2.162a1.873,1.873,0,0,0,2.926.631,2.846,2.846,0,0,0,.567-3.476C512.894,118.236,509.709,115.651,505.557,114.872Z" transform="translate(18.313 2187.062)"/>
    <path id="Path_235" data-name="Path 235" class="cls-1" d="M503.832,124.46A4.181,4.181,0,1,0,508,128.608,4.2,4.2,0,0,0,503.832,124.46Z" transform="translate(18.006 2188.251)"/>
  </g>
</svg>
