<svg xmlns="http://www.w3.org/2000/svg" width="47.027" height="46.979" viewBox="0 0 47.027 46.979">
  <defs>
    <style>
      .cls-1 {
        fill: #fff;
        stroke: #fff;
      }
    </style>
  </defs>
  <g id="Group_447" data-name="Group 447" transform="translate(-374.473 -2187.5)">
    <path id="Path_312" data-name="Path 312" class="cls-1" d="M400.815,138.6v-3.234a2.781,2.781,0,0,1-.085-.338c-.106-.8-.164-1.6-.316-2.394a23.039,23.039,0,0,0-19.085-18.38c-.629-.1-1.262-.178-1.893-.265H376.2a1.479,1.479,0,0,1-.293.081,20.73,20.73,0,0,0-4.7.873,23,23,0,0,0-15.987,26.375,21.651,21.651,0,0,0,5.155,10.638c5.849,6.545,13.165,9.065,21.8,7.608a21.49,21.49,0,0,0,10.606-5.116A22.63,22.63,0,0,0,400.55,140.5C400.649,139.87,400.727,139.238,400.815,138.6Zm-17.53.645a9.695,9.695,0,1,0-11.75-15.388,9.272,9.272,0,0,0-3.375,6.837,9.653,9.653,0,0,0,4.2,8.537,15.91,15.91,0,0,0-9.871,10.977,20.259,20.259,0,1,1,30.66-.025,15.773,15.773,0,0,0-3.563-6.662A15.96,15.96,0,0,0,383.285,139.25Zm-5.939,18.03c-.505-.051-1.49-.118-2.467-.249a19.465,19.465,0,0,1-9.057-3.713c-1.09-.8-1.074-.822-.76-2.151A13.043,13.043,0,0,1,376.6,141.052a13.116,13.116,0,0,1,14.158,11.209.609.609,0,0,1-.187.474A20.565,20.565,0,0,1,377.346,157.28Zm-6.5-26.053a6.972,6.972,0,1,1,7.014,6.947A7.015,7.015,0,0,1,370.848,131.227Z" transform="translate(20.185 2074.006)"/>
  </g>
</svg>
