<svg xmlns="http://www.w3.org/2000/svg" width="46" height="46.049" viewBox="0 0 46 46.049">
  <defs>
    <style>
      .cls-1 {
        fill: #a98445;
        stroke: #a98445;
      }
    </style>
  </defs>
  <g id="Group_452" data-name="Group 452" transform="translate(-496.5 -1993.5)">
    <path id="Path_219" data-name="Path 219" class="cls-1" d="M136.591,122.324a6.828,6.828,0,0,0-6.244-3.964c-.761-.026-1.521,0-2.354,0,0-.43-.03-.851.007-1.265a2,2,0,0,0-1.324-2.252H125.8a1.875,1.875,0,0,0-1.317,1.724c-.007.44,0,.877,0,1.317v.454h-8c0-.409-.033-.828.007-1.242a2,2,0,0,0-1.326-2.252h-.877a1.872,1.872,0,0,0-1.317,1.724c-.007.437,0,.877,0,1.317v.454h-7.912c0-.409-.03-.828.007-1.242a2,2,0,0,0-1.324-2.252h-.879a2,2,0,0,0-1.324,2.252c.037.414,0,.835,0,1.347a25.514,25.514,0,0,0-3.22.021,6.919,6.919,0,0,0-6,6.86q-.014,13.776,0,27.549a6.971,6.971,0,0,0,6.553,6.939c4.655.1,9.314.03,13.971.028a1.622,1.622,0,0,0,1.426-.8,1.759,1.759,0,0,0-1.521-2.708q-6.591,0-13.183,0a3.541,3.541,0,0,1-3.736-3.673q-.017-13.556,0-27.109a3.555,3.555,0,0,1,1.233-2.8c1.333-1.161,2.924-.816,4.478-.868,0,.626-.009,1.182,0,1.738a2.041,2.041,0,0,0,.086.558,1.751,1.751,0,0,0,3.422-.509c.009-.593,0-1.186,0-1.763h7.912v1.465c0,1.24.675,2.019,1.747,2.024a1.765,1.765,0,0,0,1.768-2V121.9h8v.465c0,.468-.014.937.007,1.405a1.756,1.756,0,0,0,3.5-.007c.023-.623,0-1.247,0-1.887.823,0,1.587-.047,2.343.014a4.251,4.251,0,0,1,1.47.37,3.471,3.471,0,0,1,1.989,3.387c.009,3.252,0,6.5,0,9.756a1.749,1.749,0,0,0,1.4,1.733,1.772,1.772,0,0,0,1.956-1c.049-.1.107-.2.158-.3V124.506A14.266,14.266,0,0,0,136.591,122.324Z" transform="translate(404.691 1879.162)"/>
    <path id="Path_220" data-name="Path 220" class="cls-1" d="M125.233,133.078a11.244,11.244,0,0,0-9.159-7.848,10.921,10.921,0,0,0-10.917,4.153A11.145,11.145,0,0,0,103.8,141.89a11.555,11.555,0,0,0,12.754,6.176,11.426,11.426,0,0,0,8.909-8.571c.145-.517.237-1.046.354-1.57v-2.5c-.033-.1-.076-.2-.1-.3A17.711,17.711,0,0,0,125.233,133.078ZM114.179,144.46a7.785,7.785,0,1,1,7.787-7.8A7.841,7.841,0,0,1,114.179,144.46Z" transform="translate(416.187 1890.688)"/>
    <path id="Path_221" data-name="Path 221" class="cls-1" d="M98.222,122.017a1.923,1.923,0,1,0,1.9,1.934A1.9,1.9,0,0,0,98.222,122.017Z" transform="translate(409.88 1888.55)"/>
    <path id="Path_222" data-name="Path 222" class="cls-1" d="M101.486,122.017a1.923,1.923,0,1,0,1.921,1.911A1.9,1.9,0,0,0,101.486,122.017Z" transform="translate(414.179 1888.55)"/>
    <path id="Path_223" data-name="Path 223" class="cls-1" d="M106.695,123.961a1.922,1.922,0,1,0-1.932,1.9A1.9,1.9,0,0,0,106.695,123.961Z" transform="translate(418.477 1888.55)"/>
    <path id="Path_224" data-name="Path 224" class="cls-1" d="M109.982,123.988a1.922,1.922,0,1,0-2.008,1.87A1.9,1.9,0,0,0,109.982,123.988Z" transform="translate(422.776 1888.552)"/>
    <path id="Path_225" data-name="Path 225" class="cls-1" d="M98.233,125.3a1.923,1.923,0,1,0,1.888,1.944A1.9,1.9,0,0,0,98.233,125.3Z" transform="translate(409.88 1892.849)"/>
    <path id="Path_226" data-name="Path 226" class="cls-1" d="M101.532,125.3a1.923,1.923,0,1,0,1.875,1.957A1.9,1.9,0,0,0,101.532,125.3Z" transform="translate(414.179 1892.849)"/>
    <path id="Path_227" data-name="Path 227" class="cls-1" d="M98.187,128.591a1.923,1.923,0,1,0,1.934,1.9A1.9,1.9,0,0,0,98.187,128.591Z" transform="translate(409.88 1897.147)"/>
    <path id="Path_228" data-name="Path 228" class="cls-1" d="M99.565,130.5a1.921,1.921,0,1,0,1.919-1.914A1.9,1.9,0,0,0,99.565,130.5Z" transform="translate(414.179 1897.147)"/>
    <path id="Path_229" data-name="Path 229" class="cls-1" d="M111.1,131.249c-.288-.005-.573,0-.921,0,0-.735.01-1.407,0-2.077a1.92,1.92,0,0,0-3.838-.005c-.013,1.359-.015,2.72,0,4.082a1.871,1.871,0,0,0,1.84,1.84q1.462.023,2.929,0a1.921,1.921,0,0,0-.01-3.84Z" transform="translate(422.114 1895.187)"/>
  </g>
</svg>
